# xmcd
#
# Track frame offsets:
#	150
#	18711
#	30681
#	50306
#	66414
#	84015
#	99647
#	112714
#	135661
#	151906
#	169438
#	179641
#	196055
#	215027
#	232787
#	249943
#
# Disc length: 3590 seconds
#
# Revision: 0
# Processed by: cddbd v1.5.2PL0 Copyright (c) Steve Scherf et al.
# Submitted via: EasyCDDAExtractor 12.0.1.1
#
DISCID=cf0e0410
DTITLE=Plies - Da REAList
DYEAR=2008
DGENRE=Rap
TTITLE0=Me and My Goons
TTITLE1=F**k U Gon' Do Bout It
TTITLE2=Gotta Be
TTITLE3=Want It, Need It
TTITLE4=Plenty Money
TTITLE5=Family Straight
TTITLE6=Make a Movie
TTITLE7=2nd Chance
TTITLE8=Spend the Night
TTITLE9=Heard of Me
TTITLE10=All Black
TTITLE11=Street Light
TTITLE12=I Chase Paper
TTITLE13=Pants Hang Low
TTITLE14=Co-Defendant
TTITLE15=Put It on Ya (feat. Chris J)
EXTD=
EXTT0=
EXTT1=
EXTT2=
EXTT3=
EXTT4=
EXTT5=
EXTT6=
EXTT7=
EXTT8=
EXTT9=
EXTT10=
EXTT11=
EXTT12=
EXTT13=
EXTT14=
EXTT15=
PLAYORDER=
